<svg width="16" height="16" viewBox="0 0 16 16" xmlns="http://www.w3.org/2000/svg" xmlns:xlink="http://www.w3.org/1999/xlink"><defs><path d="M9 12h1.7a.3.3 0 0 1 .199.524l-2.7 2.4a.3.3 0 0 1-.399 0l-2.699-2.4a.3.3 0 0 1 .2-.524H7V8a1 1 0 1 1 2 0v4zm2-1a1 1 0 0 1 0-2 2 2 0 1 0-.258-3.983 2 2 0 0 0-2.854-.68 2 2 0 0 0-3.871.921A2 2 0 0 0 5 9a1 1 0 1 1 0 2 4 4 0 0 1-2.936-6.717 4.001 4.001 0 0 1 6.598-2.269 3.995 3.995 0 0 1 3.055 1.05A4.001 4.001 0 0 1 11 11z" id="a"/></defs><use fill="#000" xlink:href="#a" fill-rule="evenodd"/></svg>